<?xml version="1.0" encoding="UTF-8"?><svg id="Primary_Logo" xmlns="http://www.w3.org/2000/svg" viewBox="0 0 407 420"><defs><style>.cls-1{fill:#17493a;}</style></defs><path class="cls-1" d="M320.1,207.49c-21.46,0-42.57,5.65-61.05,16.34-26.92,15.57-46.54,40.72-55.54,69.67-9.01-28.95-28.63-54.1-55.55-69.67-18.48-10.69-39.59-16.34-61.05-16.34-3.04,0-5.5,2.46-5.5,5.5,0,21.46,5.65,42.57,16.34,61.05,21.78,37.65,62.31,61.05,105.76,61.05s83.97-23.39,105.76-61.05c10.69-18.48,16.34-39.59,16.34-61.05,0-3.04-2.46-5.5-5.5-5.5ZM107.27,268.54c-8.79-15.19-13.83-32.33-14.72-49.9,17.57.89,34.71,5.93,49.9,14.72,32.63,18.88,53.49,53.21,55.41,90.59-37.38-1.92-71.71-22.78-90.59-55.41ZM299.73,268.54c-18.88,32.63-53.21,53.49-90.59,55.41,1.92-37.38,22.78-71.71,55.41-90.59,15.19-8.79,32.33-13.83,49.9-14.72-.89,17.57-5.93,34.71-14.72,49.9Z"/><path class="cls-1" d="M115.1,199.53c2.6.56,5.18,1.2,7.74,1.92,6.16,1.72,12.19,3.89,18.04,6.49.81.36,1.62.73,2.43,1.1.07.03.14.07.21.1,2.74,1.29,5.44,2.67,8.09,4.15v-57.09l17.67,8.88v60s0,0,0,0c2.72,2.15,5.34,4.42,7.86,6.76.25.24.51.47.77.71.74.69,1.47,1.39,2.18,2.1,6.74,6.64,12.74,13.96,17.9,21.82h0c.93,1.42,1.84,2.86,2.72,4.31.04.07.08.14.13.2.91,1.51,1.8,3.04,2.65,4.59h0s0,0,0,0c0-3.68,0-156.36,0-168.28v-.74l52.94,26.6v47.66l-25.67,12.9c-1.86.93-3.03,2.83-3.03,4.91v45.19s0,0,0,0c.54-.52,1.08-1.02,1.63-1.53.45-.42.89-.84,1.35-1.25.56-.51,1.13-1.01,1.7-1.51.28-.24.55-.48.83-.72,1.52-1.31,3.07-2.59,4.65-3.84.06-.05.11-.09.17-.14,4.87-3.84,10.04-7.35,15.48-10.51,1.09-.63,2.2-1.23,3.31-1.83.56-.3,1.12-.6,1.69-.9.55-.29,1.11-.56,1.66-.84,2.38-1.2,4.79-2.34,7.23-3.39v-24.23l17.69,8.89v9.15c.59-.16,1.18-.31,1.78-.46.54-.14,1.07-.27,1.61-.4,2.52-.61,5.06-1.15,7.61-1.62h0v-10.06c0-2.08-1.17-3.98-3.03-4.91l-25.66-12.9v-51.05c0-2.08-1.17-3.98-3.03-4.91l-58.43-29.37s-.07-.03-.1-.04c-.11-.05-.23-.1-.34-.14-.1-.04-.21-.08-.31-.12-.11-.04-.23-.07-.35-.1-.11-.03-.22-.06-.33-.08-.12-.02-.23-.04-.35-.05-.11-.01-.23-.03-.34-.04-.12,0-.23,0-.35,0s-.23,0-.35,0c-.11,0-.23.02-.34.04-.12.01-.23.03-.35.05-.11.02-.22.05-.33.08-.12.03-.23.06-.35.1-.11.04-.21.08-.32.12-.11.04-.23.09-.34.14-.03.02-.07.03-.11.04l-57.39,28.84c-1.86.93-3.03,2.83-3.03,4.91v24.62l-25.69,12.91c-1.86.93-3.03,2.83-3.03,4.91v37.18c.84.16,1.68.33,2.51.51.23.05.47.1.7.15Z"/></svg>