<?xml version="1.0" encoding="UTF-8"?><svg id="Primary_Logo" xmlns="http://www.w3.org/2000/svg" viewBox="0 0 947.16 682.56"><defs><style>.cls-1{fill:#17493a;}</style></defs><path class="cls-1" d="M158.19,549.51c-11.32,0-21.67-1.94-31.05-5.81-9.38-3.87-17.5-9.42-24.35-16.64-6.85-7.22-12.17-15.78-15.97-25.69-3.8-9.9-5.69-20.74-5.69-32.5s2.01-21.81,6.03-31.5c4.02-9.68,9.61-18.17,16.75-25.46,7.15-7.29,15.49-12.96,25.02-16.98,9.53-4.02,19.88-6.03,31.05-6.03,7.59,0,14.97,1.12,22.11,3.35,7.15,2.23,13.7,5.33,19.66,9.27,5.95,3.95,10.94,8.53,14.96,13.74l-18.54,20.33c-3.87-4.02-7.86-7.41-11.95-10.17-4.1-2.75-8.34-4.84-12.73-6.25-4.39-1.41-8.9-2.12-13.52-2.12-6.85,0-13.29,1.27-19.32,3.8-6.03,2.53-11.24,6.11-15.64,10.72-4.39,4.62-7.86,10.09-10.39,16.42-2.53,6.33-3.8,13.37-3.8,21.11s1.23,15.04,3.69,21.44c2.46,6.4,5.96,11.92,10.5,16.53,4.54,4.62,9.98,8.15,16.31,10.61,6.33,2.45,13.29,3.69,20.89,3.69,4.92,0,9.68-.67,14.3-2.01,4.62-1.34,8.9-3.24,12.84-5.7,3.94-2.46,7.56-5.32,10.83-8.6l14.3,23.01c-3.57,4.02-8.34,7.67-14.3,10.94-5.96,3.28-12.62,5.85-19.99,7.71-7.37,1.86-14.71,2.79-22,2.79Z"/><path class="cls-1" d="M375.95,547.5l-35.88-61.97c1.53-.68,3.04-1.41,4.5-2.25,7.67-4.39,13.77-10.35,18.31-17.87,4.54-7.52,6.81-15.75,6.81-24.68,0-9.38-2.27-17.83-6.81-25.35-4.54-7.52-10.69-13.48-18.43-17.87-7.74-4.39-16.31-6.59-25.69-6.59h-67.91v156.36h28.37v-57.41h29.99l32.34,57.41,34.4.22ZM279.23,417.04h34.62c5.21,0,9.83,1.04,13.85,3.13,4.02,2.09,7.15,4.92,9.38,8.49,2.23,3.57,3.35,7.82,3.35,12.73,0,4.32-.89,8.27-2.68,11.84-1.79,3.57-4.28,6.37-7.48,8.38-3.21,2.01-6.96,3.02-11.28,3.02h-39.76v-47.58Z"/><path class="cls-1" d="M536.64,547.5l-35.88-61.97c1.53-.68,3.04-1.41,4.5-2.25,7.67-4.39,13.77-10.35,18.32-17.87,4.54-7.52,6.81-15.75,6.81-24.68,0-9.38-2.27-17.83-6.81-25.35-4.54-7.52-10.69-13.48-18.43-17.87-7.74-4.39-16.31-6.59-25.69-6.59h-67.91v156.36h28.37v-57.41h29.99l32.34,57.41,34.4.22ZM439.92,417.04h34.62c5.21,0,9.83,1.04,13.85,3.13,4.02,2.09,7.15,4.92,9.38,8.49,2.23,3.57,3.35,7.82,3.35,12.73,0,4.32-.89,8.27-2.68,11.84-1.79,3.57-4.28,6.37-7.48,8.38-3.21,2.01-6.96,3.02-11.28,3.02h-39.76v-47.58Z"/><polygon class="cls-1" points="599.67 521.14 599.67 480.48 661.99 480.48 661.99 454.57 599.67 454.57 599.67 417.49 673.39 417.49 673.39 391.13 571.08 391.13 571.08 547.5 674.28 547.5 674.28 521.14 599.67 521.14"/><path class="cls-1" d="M837.21,391.13l-49.6,79.59-48.91-79.59h-27.48v156.36h28.82v-58.75c0-14.44-.33-26.92-1-37.42-.25-3.89-.59-7.73-.97-11.55l41.29,65.27h14.74l42.53-65.65c-.44,4.37-.82,8.76-1.09,13.16-.67,10.72-1,22.78-1,36.19v58.75h28.81v-156.36h-26.14Z"/><path class="cls-1" d="M95.89,582.69c.66-.66,1.43-1.17,2.32-1.53.88-.36,1.82-.54,2.82-.54.8,0,1.54.11,2.24.34.7.22,1.34.54,1.92.95.58.41,1.14.89,1.67,1.44l3.89-4.45c-.75-.87-1.64-1.62-2.67-2.26-1.03-.63-2.15-1.12-3.34-1.44-1.2-.33-2.42-.49-3.66-.49-2,0-3.83.34-5.51,1.01-1.68.67-3.14,1.61-4.37,2.82-1.23,1.21-2.2,2.64-2.9,4.28-.7,1.64-1.05,3.44-1.05,5.38s.33,3.82.99,5.48c.66,1.66,1.6,3.09,2.82,4.3,1.22,1.21,2.66,2.14,4.32,2.8,1.66.66,3.47.99,5.44.99,1.27,0,2.53-.16,3.79-.47,1.26-.31,2.4-.74,3.44-1.29,1.03-.55,1.86-1.17,2.49-1.87l-3.06-4.86c-.48.5-1.02.94-1.63,1.33-.61.39-1.28.69-2,.92-.72.22-1.48.34-2.28.34-1.17,0-2.24-.17-3.2-.52-.96-.35-1.77-.86-2.45-1.53-.67-.68-1.2-1.48-1.57-2.41-.37-.94-.56-1.98-.56-3.12s.19-2.23.56-3.18c.37-.95.89-1.75,1.55-2.41Z"/><path class="cls-1" d="M123,575.23l-10.36,26.17h6.28l1.87-5.01h9.58l1.86,5.01h6.43l-10.28-26.17h-5.38ZM122.58,591.6l1.28-3.44c.2-.62.41-1.23.63-1.81.22-.59.43-1.17.62-1.76.17-.52.33-1.05.5-1.58.16.52.32,1.04.49,1.58.2.64.4,1.25.6,1.85.2.6.4,1.16.6,1.68l1.29,3.48h-6.02Z"/><path class="cls-1" d="M159.37,591.08c1.34-.75,2.4-1.77,3.18-3.08.77-1.31,1.16-2.78,1.16-4.43s-.39-3.02-1.16-4.28c-.77-1.26-1.84-2.25-3.2-2.97-1.36-.72-2.87-1.09-4.54-1.09h-11.77v26.17h6.06v-9.19h3.27l5.18,9.19h7.25l-5.87-10.11c.15-.07.3-.13.45-.21ZM149.09,580.54h4.6c.8,0,1.48.14,2.04.41.56.28.99.67,1.29,1.18.3.51.45,1.1.45,1.77s-.13,1.27-.39,1.8c-.26.52-.63.93-1.12,1.21-.49.29-1.05.43-1.7.43h-5.16v-6.8Z"/><path class="cls-1" d="M188.96,588.09c-.56-.41-1.2-.73-1.89-.97.88-.39,1.58-.94,2.11-1.68.74-1.02,1.1-2.28,1.1-3.78,0-1.35-.32-2.5-.95-3.46-.63-.96-1.57-1.69-2.82-2.2-1.25-.51-2.77-.77-4.56-.77h-11.55v26.17h11.93c1.37,0,2.62-.16,3.76-.49,1.13-.32,2.12-.82,2.97-1.5.84-.67,1.5-1.5,1.94-2.49.45-.98.67-2.14.67-3.46,0-1.15-.24-2.17-.71-3.08-.47-.91-1.14-1.68-2-2.3ZM176.38,580.54h4.45c1.1,0,1.92.23,2.47.69.55.46.82,1.09.82,1.89,0,.55-.12,1.02-.36,1.4s-.58.69-1.05.9c-.46.21-1.01.32-1.66.32h-4.67v-5.19ZM185.02,594.76c-.27.44-.65.77-1.14.99-.49.23-1.08.34-1.77.34h-5.72v-5.61h5.53c.72,0,1.35.11,1.87.32.52.21.93.52,1.21.92.29.4.43.89.43,1.46,0,.62-.14,1.15-.41,1.59Z"/><path class="cls-1" d="M219.33,578.48c-1.22-1.22-2.65-2.17-4.3-2.84-1.64-.67-3.45-1.01-5.42-1.01s-3.78.34-5.42,1.01c-1.64.67-3.08,1.62-4.3,2.84-1.22,1.22-2.17,2.65-2.84,4.3-.67,1.65-1.01,3.45-1.01,5.42s.34,3.78,1.01,5.42c.67,1.65,1.62,3.08,2.84,4.3,1.22,1.22,2.65,2.17,4.3,2.84,1.65.67,3.46,1.01,5.46,1.01s3.74-.34,5.38-1.01c1.65-.68,3.08-1.62,4.3-2.84s2.16-2.66,2.82-4.32c.66-1.66.99-3.46.99-5.4s-.33-3.78-.99-5.42c-.66-1.64-1.6-3.08-2.82-4.3ZM216.15,591.23c-.35.92-.84,1.73-1.48,2.41-.64.69-1.38,1.21-2.24,1.59-.86.37-1.8.56-2.82.56s-1.96-.19-2.82-.56c-.86-.37-1.62-.9-2.26-1.57-.65-.67-1.14-1.48-1.48-2.41-.34-.94-.5-1.95-.5-3.05s.17-2.11.5-3.03c.34-.92.83-1.73,1.48-2.41.65-.68,1.4-1.21,2.26-1.59.86-.37,1.8-.56,2.82-.56s1.96.19,2.82.56c.86.37,1.61.9,2.24,1.59.63.69,1.13,1.49,1.48,2.41.35.92.52,1.93.52,3.03s-.17,2.11-.52,3.03Z"/><path class="cls-1" d="M246.61,581.7c0,1.02,0,1.97.02,2.84.01.87.04,1.68.08,2.43.04.75.08,1.48.15,2.2.06.72.13,1.46.21,2.21.02.17.04.36.06.54l-12.25-16.69h-5.68v26.17h6.17v-8.75c0-.62,0-1.19-.02-1.7-.01-.51-.03-1.03-.05-1.55-.02-.52-.07-1.11-.13-1.76s-.14-1.39-.22-2.23c-.01-.11-.03-.24-.04-.36l12.13,16.34h5.76v-26.17h-6.17v6.47Z"/><path class="cls-1" d="M290.83,591.08c1.34-.75,2.4-1.77,3.18-3.08.77-1.31,1.16-2.78,1.16-4.43s-.39-3.02-1.16-4.28c-.77-1.26-1.84-2.25-3.2-2.97-1.36-.72-2.87-1.09-4.54-1.09h-11.77v26.17h6.06v-9.19h3.27l5.18,9.19h7.25l-5.87-10.11c.15-.07.3-.13.45-.21ZM280.55,580.54h4.6c.8,0,1.48.14,2.04.41.56.28.99.67,1.29,1.18.3.51.45,1.1.45,1.77s-.13,1.27-.39,1.8c-.26.52-.63.93-1.12,1.21-.49.29-1.05.43-1.7.43h-5.16v-6.8Z"/><polygon class="cls-1" points="301.33 580.58 305.74 580.58 305.74 596.05 301.33 596.05 301.33 601.4 316.54 601.4 316.54 596.05 312.09 596.05 312.09 580.58 316.54 580.58 316.54 575.23 301.33 575.23 301.33 580.58"/><path class="cls-1" d="M340.11,587.9c-.81-.65-1.77-1.19-2.88-1.64-1.11-.45-2.35-.81-3.72-1.09-.6-.1-1.17-.23-1.72-.39-.55-.16-1.03-.36-1.46-.6-.42-.24-.76-.51-1.01-.8-.25-.3-.37-.66-.37-1.09,0-.47.15-.88.45-1.21.3-.34.72-.6,1.25-.78.54-.19,1.18-.28,1.92-.28s1.43.11,2.11.34c.69.22,1.33.55,1.94.97.61.42,1.18.96,1.7,1.61l3.93-3.78c-.62-.95-1.38-1.76-2.26-2.43-.88-.67-1.94-1.19-3.18-1.55-1.23-.36-2.71-.54-4.43-.54-1.3,0-2.54.19-3.74.58-1.2.39-2.25.93-3.16,1.64-.91.71-1.63,1.56-2.17,2.54-.54.98-.8,2.06-.8,3.23,0,1.1.17,2.09.52,2.97.35.89.88,1.67,1.59,2.36.71.69,1.6,1.27,2.67,1.74,1.07.47,2.33.87,3.78,1.19.52.1,1.03.22,1.53.36s.97.3,1.42.49c.45.19.83.39,1.16.62.32.22.58.49.77.78.19.3.28.64.28,1.01,0,.5-.15.92-.45,1.25-.3.34-.72.59-1.27.77-.55.18-1.16.26-1.83.26-1.35,0-2.65-.29-3.9-.86-1.26-.57-2.51-1.7-3.76-3.36l-3.85,4.37c.85,1.07,1.81,2,2.88,2.79s2.3,1.38,3.68,1.79c1.38.41,2.93.62,4.65.62,1.99,0,3.76-.33,5.29-.99,1.53-.66,2.74-1.62,3.62-2.88.88-1.26,1.33-2.8,1.33-4.62,0-1.17-.22-2.2-.65-3.08-.44-.88-1.06-1.65-1.87-2.3Z"/><polygon class="cls-1" points="372.01 575.23 364.5 575.23 354.89 584.98 354.89 575.23 348.54 575.23 348.54 601.4 354.89 601.4 354.89 592.05 356.79 590.18 365.32 601.4 372.72 601.4 360.88 586.17 372.01 575.23"/><path class="cls-1" d="M406.29,591.08c1.35-.75,2.4-1.77,3.18-3.08.77-1.31,1.16-2.78,1.16-4.43s-.39-3.02-1.16-4.28c-.77-1.26-1.84-2.25-3.2-2.97-1.36-.72-2.87-1.09-4.54-1.09h-11.77v26.17h6.06v-9.19h3.27l5.18,9.19h7.25l-5.87-10.11c.15-.07.3-.13.45-.21ZM396.01,580.54h4.6c.8,0,1.48.14,2.04.41.56.28.99.67,1.29,1.18.3.51.45,1.1.45,1.77s-.13,1.27-.39,1.8c-.26.52-.63.93-1.12,1.21-.49.29-1.05.43-1.7.43h-5.16v-6.8Z"/><polygon class="cls-1" points="423.48 590.67 433.87 590.67 433.87 585.51 423.48 585.51 423.48 580.65 435.55 580.65 435.55 575.23 417.31 575.23 417.31 601.4 435.93 601.4 435.93 595.98 423.48 595.98 423.48 590.67"/><path class="cls-1" d="M449.57,575.23l-10.36,26.17h6.28l1.87-5.01h9.58l1.86,5.01h6.43l-10.28-26.17h-5.38ZM449.15,591.6l1.28-3.44c.2-.62.41-1.23.63-1.81.22-.59.43-1.17.62-1.76.17-.52.33-1.05.5-1.58.16.52.32,1.04.49,1.58.2.64.4,1.25.6,1.85.2.6.4,1.16.6,1.68l1.29,3.48h-6.02Z"/><polygon class="cls-1" points="475.96 575.23 469.61 575.23 469.61 601.4 487.62 601.4 487.62 595.79 475.96 595.79 475.96 575.23"/><polygon class="cls-1" points="513.26 590.67 523.65 590.67 523.65 585.51 513.26 585.51 513.26 580.65 525.33 580.65 525.33 575.23 507.09 575.23 507.09 601.4 525.71 601.4 525.71 595.98 513.26 595.98 513.26 590.67"/><path class="cls-1" d="M548.71,587.9c-.81-.65-1.77-1.19-2.88-1.64-1.11-.45-2.35-.81-3.72-1.09-.6-.1-1.17-.23-1.72-.39-.55-.16-1.03-.36-1.46-.6-.42-.24-.76-.51-1.01-.8-.25-.3-.37-.66-.37-1.09,0-.47.15-.88.45-1.21.3-.34.72-.6,1.25-.78.54-.19,1.18-.28,1.92-.28s1.43.11,2.11.34c.69.22,1.33.55,1.94.97.61.42,1.18.96,1.7,1.61l3.93-3.78c-.62-.95-1.38-1.76-2.26-2.43-.88-.67-1.94-1.19-3.18-1.55-1.23-.36-2.71-.54-4.43-.54-1.3,0-2.54.19-3.74.58-1.2.39-2.25.93-3.16,1.64-.91.71-1.63,1.56-2.17,2.54-.54.98-.8,2.06-.8,3.23,0,1.1.17,2.09.52,2.97.35.89.88,1.67,1.59,2.36.71.69,1.6,1.27,2.67,1.74,1.07.47,2.33.87,3.78,1.19.52.1,1.03.22,1.53.36s.97.3,1.42.49c.45.19.83.39,1.16.62.32.22.58.49.77.78.19.3.28.64.28,1.01,0,.5-.15.92-.45,1.25-.3.34-.72.59-1.27.77-.55.18-1.16.26-1.83.26-1.35,0-2.65-.29-3.9-.86-1.26-.57-2.51-1.7-3.76-3.36l-3.85,4.37c.85,1.07,1.81,2,2.88,2.79s2.3,1.38,3.68,1.79c1.38.41,2.93.62,4.65.62,1.99,0,3.76-.33,5.29-.99,1.53-.66,2.74-1.62,3.63-2.88.88-1.26,1.33-2.8,1.33-4.62,0-1.17-.22-2.2-.65-3.08-.44-.88-1.06-1.65-1.87-2.3Z"/><polygon class="cls-1" points="555.05 580.84 562.82 580.84 562.82 601.4 569.18 601.4 569.18 580.84 577.14 580.84 577.14 575.23 555.05 575.23 555.05 580.84"/><path class="cls-1" d="M587.91,575.23l-10.36,26.17h6.28l1.87-5.01h9.58l1.86,5.01h6.43l-10.28-26.17h-5.38ZM587.48,591.6l1.28-3.44c.2-.62.41-1.23.63-1.81.22-.59.43-1.17.62-1.76.17-.52.33-1.05.5-1.58.16.52.32,1.04.49,1.58.2.64.4,1.25.6,1.85.2.6.4,1.16.6,1.68l1.29,3.48h-6.02Z"/><polygon class="cls-1" points="603.98 580.84 611.75 580.84 611.75 601.4 618.11 601.4 618.11 580.84 626.07 580.84 626.07 575.23 603.98 575.23 603.98 580.84"/><polygon class="cls-1" points="637.85 590.67 648.24 590.67 648.24 585.51 637.85 585.51 637.85 580.65 649.92 580.65 649.92 575.23 631.68 575.23 631.68 601.4 650.29 601.4 650.29 595.98 637.85 595.98 637.85 590.67"/><path class="cls-1" d="M682.94,587.43l-7.5-12.2h-5.68v26.17h6.17v-8.15c0-2.42-.05-4.5-.17-6.26-.03-.43-.07-.84-.11-1.26l5.92,9.32h2.47l6.1-9.47c-.05.54-.1,1.08-.14,1.62-.11,1.79-.17,3.81-.17,6.05v8.15h6.17v-26.17h-5.46l-7.6,12.2Z"/><path class="cls-1" d="M725.31,578.48c-1.22-1.22-2.65-2.17-4.3-2.84-1.64-.67-3.45-1.01-5.42-1.01s-3.78.34-5.42,1.01c-1.64.67-3.08,1.62-4.3,2.84-1.22,1.22-2.17,2.65-2.84,4.3-.67,1.65-1.01,3.45-1.01,5.42s.34,3.78,1.01,5.42c.67,1.65,1.62,3.08,2.84,4.3,1.22,1.22,2.65,2.17,4.3,2.84,1.65.67,3.46,1.01,5.46,1.01s3.74-.34,5.38-1.01c1.65-.68,3.08-1.62,4.3-2.84s2.16-2.66,2.82-4.32c.66-1.66.99-3.46.99-5.4s-.33-3.78-.99-5.42c-.66-1.64-1.6-3.08-2.82-4.3ZM722.13,591.23c-.35.92-.84,1.73-1.48,2.41-.64.69-1.38,1.21-2.24,1.59-.86.37-1.8.56-2.82.56s-1.96-.19-2.82-.56c-.86-.37-1.62-.9-2.26-1.57-.65-.67-1.14-1.48-1.48-2.41-.34-.94-.5-1.95-.5-3.05s.17-2.11.5-3.03c.34-.92.83-1.73,1.48-2.41.65-.68,1.4-1.21,2.26-1.59.86-.37,1.8-.56,2.82-.56s1.96.19,2.82.56c.86.37,1.61.9,2.24,1.59.63.69,1.13,1.49,1.48,2.41.35.92.52,1.93.52,3.03s-.17,2.11-.52,3.03Z"/><path class="cls-1" d="M752.6,581.7c0,1.02,0,1.97.02,2.84.01.87.04,1.68.08,2.43.04.75.08,1.48.15,2.2.06.72.13,1.46.21,2.21.02.17.04.36.06.54l-12.25-16.69h-5.68v26.17h6.17v-8.75c0-.62,0-1.19-.02-1.7-.01-.51-.03-1.03-.05-1.55-.02-.52-.07-1.11-.13-1.76s-.14-1.39-.22-2.23c-.01-.11-.03-.24-.04-.36l12.13,16.34h5.76v-26.17h-6.17v6.47Z"/><polygon class="cls-1" points="765.94 580.58 770.35 580.58 770.35 596.05 765.94 596.05 765.94 601.4 781.15 601.4 781.15 596.05 776.7 596.05 776.7 580.58 781.15 580.58 781.15 575.23 765.94 575.23 765.94 580.58"/><polygon class="cls-1" points="786.24 580.84 794.01 580.84 794.01 601.4 800.37 601.4 800.37 580.84 808.33 580.84 808.33 575.23 786.24 575.23 786.24 580.84"/><path class="cls-1" d="M834.42,578.48c-1.22-1.22-2.65-2.17-4.3-2.84-1.64-.67-3.45-1.01-5.42-1.01s-3.78.34-5.42,1.01c-1.64.67-3.08,1.62-4.3,2.84-1.22,1.22-2.17,2.65-2.84,4.3-.67,1.65-1.01,3.45-1.01,5.42s.34,3.78,1.01,5.42c.67,1.65,1.62,3.08,2.84,4.3,1.22,1.22,2.65,2.17,4.3,2.84,1.65.67,3.46,1.01,5.46,1.01s3.74-.34,5.38-1.01c1.65-.68,3.08-1.62,4.3-2.84,1.22-1.22,2.16-2.66,2.82-4.32.66-1.66.99-3.46.99-5.4s-.33-3.78-.99-5.42c-.66-1.64-1.6-3.08-2.82-4.3ZM831.24,591.23c-.35.92-.84,1.73-1.48,2.41-.64.69-1.38,1.21-2.24,1.59-.86.37-1.8.56-2.82.56s-1.96-.19-2.82-.56c-.86-.37-1.62-.9-2.26-1.57-.65-.67-1.14-1.48-1.48-2.41-.34-.94-.5-1.95-.5-3.05s.17-2.11.5-3.03c.34-.92.83-1.73,1.48-2.41.65-.68,1.4-1.21,2.26-1.59.86-.37,1.8-.56,2.82-.56s1.96.19,2.82.56c.86.37,1.61.9,2.24,1.59.63.69,1.13,1.49,1.48,2.41.35.92.52,1.93.52,3.03s-.17,2.11-.52,3.03Z"/><path class="cls-1" d="M866.04,601.4l-5.87-10.11c.15-.07.3-.13.45-.21,1.35-.75,2.4-1.77,3.18-3.08.77-1.31,1.16-2.78,1.16-4.43s-.39-3.02-1.16-4.28c-.77-1.26-1.84-2.25-3.2-2.97-1.36-.72-2.87-1.09-4.54-1.09h-11.77v26.17h6.06v-9.19h3.27l5.18,9.19h7.25ZM850.34,580.54h4.6c.8,0,1.48.14,2.04.41.56.28.99.67,1.29,1.18.3.51.45,1.1.45,1.77s-.13,1.27-.39,1.8c-.26.52-.63.93-1.12,1.21-.49.29-1.05.43-1.7.43h-5.16v-6.8Z"/><path class="cls-1" d="M589.11,206.8c-21.46,0-42.57,5.65-61.05,16.34-26.92,15.57-46.54,40.72-55.54,69.67-9.01-28.95-28.63-54.1-55.55-69.67-18.48-10.69-39.59-16.34-61.05-16.34-3.04,0-5.5,2.46-5.5,5.5,0,21.46,5.65,42.57,16.34,61.05,21.78,37.65,62.31,61.05,105.76,61.05s83.97-23.39,105.76-61.05c10.69-18.48,16.34-39.59,16.34-61.05,0-3.04-2.46-5.5-5.5-5.5ZM376.27,267.85c-8.79-15.19-13.83-32.33-14.72-49.9,17.57.89,34.71,5.93,49.9,14.72,32.63,18.88,53.49,53.21,55.41,90.59-37.38-1.92-71.71-22.78-90.59-55.41ZM568.74,267.85c-18.88,32.63-53.21,53.49-90.59,55.41,1.92-37.38,22.78-71.71,55.41-90.59,15.19-8.79,32.33-13.83,49.9-14.72-.89,17.57-5.93,34.71-14.72,49.9Z"/><path class="cls-1" d="M384.11,198.84c2.6.56,5.18,1.2,7.74,1.92,6.16,1.72,12.19,3.89,18.04,6.49.81.36,1.62.73,2.43,1.1.07.03.14.07.21.1,2.74,1.29,5.44,2.67,8.09,4.15v-57.09l17.67,8.88v60s0,0,0,0c2.72,2.15,5.34,4.42,7.86,6.76.25.24.51.47.77.71.74.69,1.47,1.39,2.18,2.1,6.74,6.64,12.74,13.96,17.9,21.82h0c.93,1.42,1.84,2.86,2.72,4.31.04.07.08.14.13.2.91,1.51,1.8,3.04,2.65,4.59h0s0,0,0,0c0-3.68,0-156.36,0-168.28v-.74l52.94,26.6v47.66l-25.67,12.9c-1.86.93-3.03,2.83-3.03,4.91v45.19s0,0,0,0c.54-.52,1.08-1.02,1.63-1.53.45-.42.89-.84,1.35-1.25.56-.51,1.13-1.01,1.7-1.51.28-.24.55-.48.83-.72,1.52-1.31,3.07-2.59,4.65-3.84.06-.05.11-.09.17-.14,4.87-3.84,10.04-7.35,15.48-10.51,1.09-.63,2.2-1.23,3.31-1.83.56-.3,1.12-.6,1.69-.9.55-.29,1.11-.56,1.66-.84,2.38-1.2,4.79-2.34,7.23-3.39v-24.23l17.69,8.89v9.15c.59-.16,1.18-.31,1.78-.46.54-.14,1.07-.27,1.61-.4,2.52-.61,5.06-1.15,7.61-1.62h0v-10.06c0-2.08-1.17-3.98-3.03-4.91l-25.66-12.9v-51.05c0-2.08-1.17-3.98-3.03-4.91l-58.43-29.37s-.07-.03-.1-.04c-.11-.05-.23-.1-.34-.14-.1-.04-.21-.08-.31-.12-.11-.04-.23-.07-.35-.1-.11-.03-.22-.06-.33-.08-.12-.02-.23-.04-.35-.05-.11-.01-.23-.03-.34-.04-.12,0-.23,0-.35,0s-.23,0-.35,0c-.11,0-.23.02-.34.04-.12.01-.23.03-.35.05-.11.02-.22.05-.33.08-.12.03-.23.06-.35.1-.11.04-.21.08-.32.12-.11.04-.23.09-.34.14-.03.02-.07.03-.11.04l-57.39,28.84c-1.86.93-3.03,2.83-3.03,4.91v24.62l-25.69,12.91c-1.86.93-3.03,2.83-3.03,4.91v37.18c.84.16,1.68.33,2.51.51.23.05.47.1.7.15Z"/></svg>