<?xml version="1.0" encoding="UTF-8"?><svg id="Primary_Logo" xmlns="http://www.w3.org/2000/svg" viewBox="0 0 947 645"><defs><style>.cls-1{fill:#17493a;}</style></defs><path class="cls-1" d="M158.11,555.78c-11.32,0-21.67-1.94-31.05-5.81-9.38-3.87-17.5-9.42-24.35-16.64-6.85-7.22-12.17-15.78-15.97-25.69-3.8-9.9-5.69-20.74-5.69-32.5s2.01-21.81,6.03-31.5c4.02-9.68,9.61-18.17,16.75-25.46,7.15-7.29,15.49-12.96,25.02-16.98,9.53-4.02,19.88-6.03,31.05-6.03,7.59,0,14.97,1.12,22.11,3.35,7.15,2.23,13.7,5.33,19.66,9.27,5.95,3.95,10.94,8.53,14.96,13.74l-18.54,20.33c-3.87-4.02-7.86-7.41-11.95-10.17-4.1-2.75-8.34-4.84-12.73-6.25-4.39-1.41-8.9-2.12-13.52-2.12-6.85,0-13.29,1.27-19.32,3.8-6.03,2.53-11.24,6.11-15.64,10.72-4.39,4.62-7.86,10.09-10.39,16.42-2.53,6.33-3.8,13.37-3.8,21.11s1.23,15.04,3.69,21.44c2.46,6.4,5.96,11.92,10.5,16.53,4.54,4.62,9.98,8.15,16.31,10.61,6.33,2.45,13.29,3.69,20.89,3.69,4.92,0,9.68-.67,14.3-2.01,4.62-1.34,8.9-3.24,12.84-5.7,3.94-2.46,7.56-5.32,10.83-8.6l14.3,23.01c-3.57,4.02-8.34,7.67-14.3,10.94-5.96,3.28-12.62,5.85-19.99,7.71-7.37,1.86-14.71,2.79-22,2.79Z"/><path class="cls-1" d="M375.87,553.77l-35.88-61.97c1.53-.68,3.04-1.41,4.5-2.25,7.67-4.39,13.77-10.35,18.31-17.87,4.54-7.52,6.81-15.75,6.81-24.68,0-9.38-2.27-17.83-6.81-25.35-4.54-7.52-10.69-13.48-18.43-17.87-7.74-4.39-16.31-6.59-25.69-6.59h-67.91v156.36h28.37v-57.41h29.99l32.34,57.41,34.4.22ZM279.15,423.32h34.62c5.21,0,9.83,1.04,13.85,3.13,4.02,2.09,7.15,4.92,9.38,8.49,2.23,3.57,3.35,7.82,3.35,12.73,0,4.32-.89,8.27-2.68,11.84-1.79,3.57-4.28,6.37-7.48,8.38-3.21,2.01-6.96,3.02-11.28,3.02h-39.76v-47.58Z"/><path class="cls-1" d="M536.56,553.77l-35.88-61.97c1.53-.68,3.04-1.41,4.5-2.25,7.67-4.39,13.77-10.35,18.32-17.87,4.54-7.52,6.81-15.75,6.81-24.68,0-9.38-2.27-17.83-6.81-25.35-4.54-7.52-10.69-13.48-18.43-17.87-7.74-4.39-16.31-6.59-25.69-6.59h-67.91v156.36h28.37v-57.41h29.99l32.34,57.41,34.4.22ZM439.83,423.32h34.62c5.21,0,9.83,1.04,13.85,3.13,4.02,2.09,7.15,4.92,9.38,8.49,2.23,3.57,3.35,7.82,3.35,12.73,0,4.32-.89,8.27-2.68,11.84-1.79,3.57-4.28,6.37-7.48,8.38-3.21,2.01-6.96,3.02-11.28,3.02h-39.76v-47.58Z"/><polygon class="cls-1" points="599.59 527.41 599.59 486.76 661.91 486.76 661.91 460.85 599.59 460.85 599.59 423.76 673.31 423.76 673.31 397.41 571 397.41 571 553.77 674.2 553.77 674.2 527.41 599.59 527.41"/><path class="cls-1" d="M837.12,397.41l-49.6,79.59-48.91-79.59h-27.48v156.36h28.82v-58.75c0-14.44-.33-26.92-1-37.42-.25-3.89-.59-7.73-.97-11.55l41.29,65.27h14.74l42.53-65.65c-.44,4.37-.82,8.76-1.09,13.16-.67,10.72-1,22.78-1,36.19v58.75h28.81v-156.36h-26.14Z"/><path class="cls-1" d="M588.75,213.08c-21.46,0-42.57,5.65-61.05,16.34-26.92,15.57-46.54,40.72-55.54,69.67-9.01-28.95-28.63-54.1-55.55-69.67-18.48-10.69-39.59-16.34-61.05-16.34-3.04,0-5.5,2.46-5.5,5.5,0,21.46,5.65,42.57,16.34,61.05,21.78,37.65,62.31,61.05,105.76,61.05s83.97-23.39,105.76-61.05c10.69-18.48,16.34-39.59,16.34-61.05,0-3.04-2.46-5.5-5.5-5.5ZM375.92,274.12c-8.79-15.19-13.83-32.33-14.72-49.9,17.57.89,34.71,5.93,49.9,14.72,32.63,18.88,53.49,53.21,55.41,90.59-37.38-1.92-71.71-22.78-90.59-55.41ZM568.39,274.12c-18.88,32.63-53.21,53.49-90.59,55.41,1.92-37.38,22.78-71.71,55.41-90.59,15.19-8.79,32.33-13.83,49.9-14.72-.89,17.57-5.93,34.71-14.72,49.9Z"/><path class="cls-1" d="M383.75,205.11c2.6.56,5.18,1.2,7.74,1.92,6.16,1.72,12.19,3.89,18.04,6.49.81.36,1.62.73,2.43,1.1.07.03.14.07.21.1,2.74,1.29,5.44,2.67,8.09,4.15v-57.09l17.67,8.88v60s0,0,0,0c2.72,2.15,5.34,4.42,7.86,6.76.25.24.51.47.77.71.74.69,1.47,1.39,2.18,2.1,6.74,6.64,12.74,13.96,17.9,21.82h0c.93,1.42,1.84,2.86,2.72,4.31.04.07.08.14.13.2.91,1.51,1.8,3.04,2.65,4.59h0s0,0,0,0c0-3.68,0-156.36,0-168.28v-.74l52.94,26.6v47.66l-25.67,12.9c-1.86.93-3.03,2.83-3.03,4.91v45.19s0,0,0,0c.54-.52,1.08-1.02,1.63-1.53.45-.42.89-.84,1.35-1.25.56-.51,1.13-1.01,1.7-1.51.28-.24.55-.48.83-.72,1.52-1.31,3.07-2.59,4.65-3.84.06-.05.11-.09.17-.14,4.87-3.84,10.04-7.35,15.48-10.51,1.09-.63,2.2-1.23,3.31-1.83.56-.3,1.12-.6,1.69-.9.55-.29,1.11-.56,1.66-.84,2.38-1.2,4.79-2.34,7.23-3.39v-24.23l17.69,8.89v9.15c.59-.16,1.18-.31,1.78-.46.54-.14,1.07-.27,1.61-.4,2.52-.61,5.06-1.15,7.61-1.62h0v-10.06c0-2.08-1.17-3.98-3.03-4.91l-25.66-12.9v-51.05c0-2.08-1.17-3.98-3.03-4.91l-58.43-29.37s-.07-.03-.1-.04c-.11-.05-.23-.1-.34-.14-.1-.04-.21-.08-.31-.12-.11-.04-.23-.07-.35-.1-.11-.03-.22-.06-.33-.08-.12-.02-.23-.04-.35-.05-.11-.01-.23-.03-.34-.04-.12,0-.23,0-.35,0s-.23,0-.35,0c-.11,0-.23.02-.34.04-.12.01-.23.03-.35.05-.11.02-.22.05-.33.08-.12.03-.23.06-.35.1-.11.04-.21.08-.32.12-.11.04-.23.09-.34.14-.03.02-.07.03-.11.04l-57.39,28.84c-1.86.93-3.03,2.83-3.03,4.91v24.62l-25.69,12.91c-1.86.93-3.03,2.83-3.03,4.91v37.18c.84.16,1.68.33,2.51.51.23.05.47.1.7.15Z"/></svg>